# xmcd
#
# Track frame offsets:
#	150
#	27610
#	43190
#	63447
#	77097
#	87760
#	106542
#	122727
#	136957
#	152380
#	172847
#	192645
#	212207
#	229075
#
# Disc length: 3253 seconds
#
# Revision: 3
# Processed by: cddbd v1.5.2PL0 Copyright (c) Steve Scherf et al.
# Submitted via: audiograbber 1.83.01
#
DISCID=b50cb30e
DTITLE=Jeff Turner - tonight....
DYEAR=1989
DGENRE=Country
TTITLE0=Rock 'n Roll I Gave You The Best Years Of My Life
TTITLE1=A Minute Of Your Time
TTITLE2=Every Time We Want To Love
TTITLE3=The Cheating Game
TTITLE4=Setting The Woods On Fire
TTITLE5=Lucky Old Sun
TTITLE6=Babe Watcha Doing Tomorrow
TTITLE7=Brother Highway
TTITLE8=Waltzing Matilda
TTITLE9=Tie Me Kangaroo Down
TTITLE10=For The Good Times
TTITLE11=Ghost Riders In The Sky
TTITLE12=(I) Got A Dream
TTITLE13=The Party's Over
EXTD=
EXTT0=
EXTT1=
EXTT2=
EXTT3=
EXTT4=
EXTT5=
EXTT6=
EXTT7=
EXTT8=
EXTT9=
EXTT10=
EXTT11=
EXTT12=
EXTT13=
PLAYORDER=
